<svg width="178" height="38" viewBox="0 0 178 38" fill="none" xmlns="http://www.w3.org/2000/svg">
<path d="M58.684 27.8463C55.6933 27.8463 53.436 27.0367 51.9121 25.4175C50.3881 23.7983 49.6262 21.3315 49.6262 18.0169C49.6262 14.7595 50.3786 12.3117 51.8835 10.6735C53.3884 9.01624 55.6552 8.1876 58.684 8.1876C59.6936 8.1876 60.6937 8.31142 61.6843 8.55906C62.6939 8.8067 63.6654 9.14959 64.5988 9.58771V12.4165C63.6654 11.8641 62.732 11.4641 61.7986 11.2164C60.8842 10.9497 59.9794 10.8164 59.0841 10.8164C57.6935 10.8164 56.5315 11.064 55.5981 11.5593C54.6837 12.0546 53.9979 12.8261 53.5408 13.8738C53.1026 14.9215 52.8836 16.312 52.8836 18.0455C52.8836 19.7409 53.1122 21.1219 53.5693 22.1887C54.0265 23.2364 54.7123 24.0079 55.6266 24.5032C56.56 24.9794 57.7411 25.2175 59.1698 25.2175C60.027 25.2175 60.9128 25.0937 61.8271 24.846C62.7415 24.5794 63.6654 24.1793 64.5988 23.646V26.4747C64.0273 26.7605 63.4082 27.0081 62.7415 27.2177C62.0748 27.4272 61.3985 27.5796 60.7128 27.6748C60.027 27.7891 59.3507 27.8463 58.684 27.8463ZM68.2276 27.5605V14.531C68.4753 14.3786 68.9324 14.169 69.5992 13.9023C70.2659 13.6356 71.0564 13.4071 71.9708 13.2166C72.8851 13.007 73.809 12.9023 74.7424 12.9023C75.2186 12.9023 75.6092 12.9404 75.9139 13.0166C76.2187 13.0928 76.4759 13.1785 76.6854 13.2737V15.6739C76.2473 15.6168 75.7901 15.5787 75.3139 15.5596C74.8377 15.5215 74.3614 15.5215 73.8852 15.5596C73.409 15.5787 72.9423 15.6168 72.4851 15.6739C72.0279 15.7311 71.6088 15.7882 71.2279 15.8453V27.5605H68.2276ZM81.8691 33.1038C81.5072 33.1038 81.1643 33.0657 80.8404 32.9895C80.5166 32.9324 80.2309 32.8562 79.9832 32.761V30.1893C80.2118 30.2655 80.4404 30.3322 80.669 30.3893C80.8976 30.4465 81.1452 30.4751 81.4119 30.4751C81.9834 30.4751 82.4596 30.3227 82.8406 30.0179C83.2216 29.7131 83.5454 29.275 83.8121 28.7035C84.0788 28.132 84.2979 27.4463 84.4693 26.6462L84.5264 28.132L78.4117 13.2166H81.8119L85.9551 24.5317H85.5265L89.6126 13.2166H92.7271L86.8123 28.4463C86.3361 29.6655 85.8218 30.6084 85.2694 31.2751C84.7169 31.9609 84.1455 32.4371 83.5549 32.7038C82.9835 32.9705 82.4215 33.1038 81.8691 33.1038ZM102.284 27.9606C101.922 27.9606 101.475 27.913 100.941 27.8177C100.408 27.7415 99.8746 27.6177 99.3412 27.4463C98.8078 27.2558 98.3411 27.0081 97.9411 26.7033L98.7126 25.7318V33.3039H95.7409V15.9882C95.7409 15.3977 95.9219 14.9024 96.2838 14.5024C96.6648 14.1024 97.1601 13.788 97.7697 13.5595C98.3792 13.3118 99.046 13.1404 99.7698 13.0451C100.513 12.9308 101.246 12.8737 101.97 12.8737C103.246 12.8737 104.408 13.1118 105.456 13.588C106.504 14.0643 107.342 14.8738 107.97 16.0168C108.599 17.1407 108.913 18.6837 108.913 20.6457C108.913 22.1316 108.656 23.4269 108.142 24.5317C107.628 25.6175 106.875 26.4652 105.885 27.0748C104.894 27.6653 103.694 27.9606 102.284 27.9606ZM101.741 25.4461C102.656 25.4461 103.418 25.2556 104.027 24.8746C104.637 24.4936 105.094 23.9412 105.399 23.2174C105.704 22.4935 105.856 21.6172 105.856 20.5886C105.856 19.6361 105.742 18.7694 105.513 17.9884C105.304 17.2074 104.913 16.5978 104.342 16.1597C103.77 15.7025 102.951 15.4739 101.884 15.4739C100.932 15.4739 100.16 15.5787 99.5698 15.7882C98.9983 15.9787 98.7126 16.2644 98.7126 16.6454V24.6175C99.2079 24.8841 99.7127 25.0937 100.227 25.2461C100.741 25.3794 101.246 25.4461 101.741 25.4461ZM117.486 27.932C116.191 27.932 115.162 27.5891 114.4 26.9034C113.658 26.2176 113.286 25.208 113.286 23.8745V15.7025H110.972V13.2166H113.286V9.21626H116.372V13.2166H119.858V15.7025H116.372V23.2745C116.372 23.9412 116.486 24.446 116.715 24.7889C116.963 25.1127 117.41 25.2747 118.058 25.2747C118.382 25.2747 118.706 25.2366 119.029 25.1604C119.353 25.0651 119.629 24.9508 119.858 24.8175V27.4748C119.515 27.6272 119.125 27.7415 118.686 27.8177C118.267 27.8939 117.867 27.932 117.486 27.932ZM129.481 27.9892C127.157 27.9892 125.424 27.332 124.281 26.0176C123.157 24.7032 122.595 22.8268 122.595 20.3886C122.595 17.7979 123.176 15.9025 124.338 14.7024C125.519 13.4833 127.214 12.8737 129.424 12.8737C131.005 12.8737 132.31 13.1689 133.339 13.7595C134.367 14.3309 135.129 15.1786 135.625 16.3025C136.12 17.4264 136.368 18.7884 136.368 20.3886C136.368 22.8078 135.767 24.6841 134.567 26.0176C133.386 27.332 131.691 27.9892 129.481 27.9892ZM129.453 25.4461C130.424 25.4461 131.196 25.2366 131.767 24.8175C132.339 24.3793 132.748 23.7793 132.996 23.0173C133.263 22.2554 133.396 21.3791 133.396 20.3886C133.396 19.2837 133.263 18.3598 132.996 17.6169C132.729 16.874 132.31 16.3216 131.739 15.9596C131.167 15.5787 130.405 15.3882 129.453 15.3882C128.5 15.3882 127.738 15.5882 127.167 15.9882C126.595 16.3882 126.186 16.9597 125.938 17.7026C125.691 18.4455 125.567 19.3409 125.567 20.3886C125.567 21.9696 125.862 23.2078 126.452 24.1031C127.043 24.9984 128.043 25.4461 129.453 25.4461ZM138.228 27.5605L145.658 8.50191H149.001L156.23 27.5605H152.915L146.543 10.0449L147.743 9.9306L141.372 27.5605H138.228ZM141.886 22.3887L142.8 19.8171H151.858L152.115 22.3887H141.886ZM158.975 27.5605V8.50191H165.661C168.747 8.50191 171.042 9.30198 172.547 10.9021C174.052 12.5022 174.804 14.8738 174.804 18.0169C174.804 21.16 174.052 23.5412 172.547 25.1604C171.042 26.7605 168.747 27.5605 165.661 27.5605H158.975ZM162.118 24.9032H165.347C167.48 24.9032 169.052 24.3603 170.061 23.2745C171.071 22.1696 171.576 20.4171 171.576 18.0169C171.576 15.6358 171.071 13.8928 170.061 12.788C169.052 11.6831 167.48 11.1307 165.347 11.1307H162.118V24.9032Z" fill="white"/>
<path d="M34.36 12.0762L24.942 2.65641C23.234 0.955179 20.9215 0 18.5109 0C16.1002 0 13.7877 0.955179 12.0797 2.65641L2.65641 12.0744C0.955179 13.7824 0 16.0949 0 18.5056C0 20.9163 0.955179 23.2287 2.65641 24.9367L12.0779 34.3582C13.7859 36.0595 16.0984 37.0147 18.5091 37.0147C20.9198 37.0147 23.2323 36.0595 24.9402 34.3582L34.36 24.9385C36.0618 23.2304 37.0173 20.9176 37.0173 18.5064C37.0173 16.0953 36.0618 13.7842 34.36 12.0762ZM25.4673 21.6158L21.6176 25.4497C21.2123 25.8605 20.7293 26.1866 20.1966 26.4087C19.6639 26.6308 19.0924 26.7446 18.5153 26.7435C17.346 26.7424 16.2251 26.277 15.3988 25.4497L11.5668 21.6158C10.7499 20.787 10.292 19.6701 10.292 18.5064C10.292 17.3428 10.7499 16.2259 11.5668 15.3971L15.3988 11.565C16.2378 10.7679 17.3509 10.3234 18.5082 10.3234C19.6655 10.3234 20.7786 10.7679 21.6176 11.565L25.4673 15.4147C26.2841 16.2435 26.742 17.3604 26.742 18.5241C26.742 19.6877 26.2841 20.8047 25.4673 21.6334V21.6158Z" fill="#04AFFD"/>
</svg>
